<?xml version="1.0" encoding="utf-8"?>
<!-- Generator: Adobe Illustrator 25.2.1, SVG Export Plug-In . SVG Version: 6.00 Build 0)  -->
<svg version="1.1" id="图层_1" xmlns="http://www.w3.org/2000/svg" xmlns:xlink="http://www.w3.org/1999/xlink" x="0px" y="0px"
	 viewBox="0 0 256 256" style="enable-background:new 0 0 256 256;" xml:space="preserve">
<style type="text/css">
	.st0{fill:#200020;}
	.st1{fill:#FFFFFF;}
	.st2{fill:#00FF00;}
	.st3{fill:#161616;}
	.st4{display:none;fill:#FFFFFF;}
	.st5{font-family:'MicrosoftYaHeiUILight';}
	.st6{font-size:10.985px;}
	.st7{letter-spacing:14;}
	.st8{display:none;fill:#FFFFFF;stroke:#FFFFFF;stroke-width:10;stroke-miterlimit:10;}
	.st9{display:none;opacity:0.15;fill:#FFFF00;}
</style>
<rect x="0.35" y="0.33" class="st3" width="255.65" height="255.65"/>
<g>
	<polygon class="st4" points="125.24,112.94 77.01,197.6 77.68,197.6 224.92,197.6 128.61,30.79 32.31,197.6 41.48,197.6 
		57.13,170.6 128.61,46.79 211.06,189.6 91.48,189.6 131.35,118.41 	"/>
</g>
<polygon class="st1" points="219.58,190 78.76,190 126.12,106.87 135.54,122.14 105.71,174.65 193,174.65 130.09,65.69 
	72.84,164.85 58.26,190 40.6,190 130.09,35 "/>
<text transform="matrix(1 0 0 1 25.7407 230.9697)" class="st4 st5 st6 st7">GOLDIE RILL</text>
<polygon class="st8" points="125.35,113.35 77.12,198 77.79,198 225.03,198 128.72,31.19 32.42,198 41.59,198 57.24,171 
	128.72,47.19 211.17,190 91.59,190 131.46,118.81 "/>
<rect x="130.15" y="83.03" transform="matrix(0.866 -0.5 0.5 0.866 -36.6945 87.1164)" class="st4" width="28.12" height="58"/>
<circle class="st9" cx="128" cy="128" r="128"/>
</svg>
